# Blender v2.76 (sub 0) OBJ File: ''
# www.blender.org
o Plane
v -1.000000 0.000000 1.000000
v 1.000000 0.000000 1.000000
v -1.000000 0.000000 -1.000000
v 1.000000 0.000000 -1.000000
v -1.000000 0.000000 -0.750000
v -1.000000 0.000000 -0.500000
v -1.000000 0.000000 -0.250000
v -1.000000 0.000000 0.000000
v -1.000000 0.000000 0.250000
v -1.000000 0.000000 0.500000
v -1.000000 0.000000 0.750000
v 1.000000 0.000000 0.750000
v 1.000000 0.000000 0.500000
v 1.000000 0.000000 0.250000
v 1.000000 0.000000 0.000000
v 1.000000 0.000000 -0.250000
v 1.000000 0.000000 -0.500000
v 1.000000 0.000000 -0.750000
v -0.777778 0.000000 1.000000
v -0.555556 0.000000 1.000000
v -0.333333 0.000000 1.000000
v -0.111111 0.000000 1.000000
v 0.111111 0.000000 1.000000
v 0.333333 0.000000 1.000000
v 0.555556 0.000000 1.000000
v 0.777778 0.000000 1.000000
v 0.777778 0.000000 -1.000000
v 0.555556 0.000000 -1.000000
v 0.333333 0.000000 -1.000000
v 0.111111 0.000000 -1.000000
v -0.111111 0.000000 -1.000000
v -0.333333 0.000000 -1.000000
v -0.555556 0.000000 -1.000000
v -0.777778 0.000000 -1.000000
v 0.777778 0.000000 0.750000
v 0.555556 0.000000 0.750000
v 0.333333 0.000000 0.750000
v 0.111111 0.000000 0.750000
v -0.111111 0.000000 0.750000
v -0.333333 0.000000 0.750000
v -0.555556 0.000000 0.750000
v -0.777778 0.000000 0.750000
v 0.777778 0.000000 0.500000
v 0.555556 0.000000 0.500000
v 0.333333 0.000000 0.500000
v 0.111111 0.000000 0.500000
v -0.111111 0.000000 0.500000
v -0.333333 0.000000 0.500000
v -0.555556 0.000000 0.500000
v -0.777778 0.000000 0.500000
v 0.777778 0.000000 0.250000
v 0.555556 0.000000 0.250000
v 0.333333 0.000000 0.250000
v 0.111111 0.000000 0.250000
v -0.111111 0.000000 0.250000
v -0.333333 0.000000 0.250000
v -0.555556 0.000000 0.250000
v -0.777778 0.000000 0.250000
v 0.777778 0.000000 0.000000
v 0.555556 0.000000 0.000000
v 0.333333 0.000000 0.000000
v 0.111111 0.000000 0.000000
v -0.111111 0.000000 0.000000
v -0.333333 0.000000 0.000000
v -0.555556 0.000000 0.000000
v -0.777778 0.000000 0.000000
v 0.777778 0.000000 -0.250000
v 0.555556 0.000000 -0.250000
v 0.333333 0.000000 -0.250000
v 0.111111 0.000000 -0.250000
v -0.111111 0.000000 -0.250000
v -0.333333 0.000000 -0.250000
v -0.555556 0.000000 -0.250000
v -0.777778 0.000000 -0.250000
v 0.777778 0.000000 -0.500000
v 0.555556 0.000000 -0.500000
v 0.333333 0.000000 -0.500000
v 0.111111 0.000000 -0.500000
v -0.111111 0.000000 -0.500000
v -0.333333 0.000000 -0.500000
v -0.555556 0.000000 -0.500000
v -0.777778 0.000000 -0.500000
v 0.777778 0.000000 -0.750000
v 0.555556 0.000000 -0.750000
v 0.333333 0.000000 -0.750000
v 0.111111 0.000000 -0.750000
v -0.111111 0.000000 -0.750000
v -0.333333 0.000000 -0.750000
v -0.555556 0.000000 -0.750000
v -0.777778 0.000000 -0.750000
vn 0.000000 1.000000 0.000000

f 83//1 18//1 4//1 27//1
f 26//1 2//1 12//1 35//1
f 35//1 12//1 13//1 43//1
f 43//1 13//1 14//1 51//1
f 51//1 14//1 15//1 59//1
f 59//1 15//1 16//1 67//1
f 67//1 16//1 17//1 75//1
f 75//1 17//1 18//1 83//1
f 6//1 82//1 90//1 5//1
f 82//1 81//1 89//1 90//1
f 81//1 80//1 88//1 89//1
f 80//1 79//1 87//1 88//1
f 79//1 78//1 86//1 87//1
f 78//1 77//1 85//1 86//1
f 77//1 76//1 84//1 85//1
f 76//1 75//1 83//1 84//1
f 7//1 74//1 82//1 6//1
f 74//1 73//1 81//1 82//1
f 73//1 72//1 80//1 81//1
f 72//1 71//1 79//1 80//1
f 71//1 70//1 78//1 79//1
f 70//1 69//1 77//1 78//1
f 69//1 68//1 76//1 77//1
f 68//1 67//1 75//1 76//1
f 8//1 66//1 74//1 7//1
f 66//1 65//1 73//1 74//1
f 65//1 64//1 72//1 73//1
f 64//1 63//1 71//1 72//1
f 63//1 62//1 70//1 71//1
f 62//1 61//1 69//1 70//1
f 61//1 60//1 68//1 69//1
f 60//1 59//1 67//1 68//1
f 9//1 58//1 66//1 8//1
f 58//1 57//1 65//1 66//1
f 57//1 56//1 64//1 65//1
f 56//1 55//1 63//1 64//1
f 55//1 54//1 62//1 63//1
f 54//1 53//1 61//1 62//1
f 53//1 52//1 60//1 61//1
f 52//1 51//1 59//1 60//1
f 10//1 50//1 58//1 9//1
f 50//1 49//1 57//1 58//1
f 49//1 48//1 56//1 57//1
f 48//1 47//1 55//1 56//1
f 47//1 46//1 54//1 55//1
f 46//1 45//1 53//1 54//1
f 45//1 44//1 52//1 53//1
f 44//1 43//1 51//1 52//1
f 11//1 42//1 50//1 10//1
f 42//1 41//1 49//1 50//1
f 41//1 40//1 48//1 49//1
f 40//1 39//1 47//1 48//1
f 39//1 38//1 46//1 47//1
f 38//1 37//1 45//1 46//1
f 37//1 36//1 44//1 45//1
f 36//1 35//1 43//1 44//1
f 1//1 19//1 42//1 11//1
f 19//1 20//1 41//1 42//1
f 20//1 21//1 40//1 41//1
f 21//1 22//1 39//1 40//1
f 22//1 23//1 38//1 39//1
f 23//1 24//1 37//1 38//1
f 24//1 25//1 36//1 37//1
f 25//1 26//1 35//1 36//1
f 5//1 90//1 34//1 3//1
f 90//1 89//1 33//1 34//1
f 89//1 88//1 32//1 33//1
f 88//1 87//1 31//1 32//1
f 87//1 86//1 30//1 31//1
f 86//1 85//1 29//1 30//1
f 85//1 84//1 28//1 29//1
f 84//1 83//1 27//1 28//1